<svg width="628" height="428" viewBox="0 0 628 428" fill="none" xmlns="http://www.w3.org/2000/svg"><path fill="#fff" d="M0 0h628v428H0z"/><path opacity=".1" d="M295.464 253.155l24.566-.158 74.163-42.038a1.183 1.183 0 00.431-1.61 1.172 1.172 0 00-.431-.431l-24.06-14.063.091 15-74.76 43.3z" fill="#000"/><path d="M189.493 88.162l188.331 108.842a1.3 1.3 0 01.652 1.128 1.308 1.308 0 01-.652 1.128l-81.066 46.81a2.61 2.61 0 01-2.605 0L105.822 137.227a1.292 1.292 0 01-.477-.477 1.294 1.294 0 010-1.303c.114-.198.279-.362.477-.476l81.099-46.81a2.594 2.594 0 012.572 0z" fill="url(#prefix__paint0_linear)"/><path d="M105.175 136.099a1.29 1.29 0 00.647 1.128l188.332 108.842a2.62 2.62 0 001.302.349v6.936a2.62 2.62 0 01-1.302-.349L105.822 144.171a1.291 1.291 0 01-.647-1.128v-6.944z" fill="url(#prefix__paint1_linear)"/><path d="M296.758 246.069l81.066-46.809a1.27 1.27 0 00.655-1.128v6.944a1.299 1.299 0 01-.655 1.129l-81.066 46.8a2.62 2.62 0 01-1.302.349v-6.936a2.62 2.62 0 001.302-.349z" fill="url(#prefix__paint2_linear)"/><path d="M288.47 220.649c.241.14.497.254.763.34.273.075.55.133.83.174.079.01.155.035.224.075a.168.168 0 01.085.091.169.169 0 01-.002.125l-.158.464a.262.262 0 01-.133.15.702.702 0 01-.332.074c-.224 0-.431 0-.63-.05-.199-.049-.432-.066-.689-.124.108.747-.29 1.386-1.194 1.908a4.225 4.225 0 01-2.075.564 3.973 3.973 0 01-2.032-.522c-.647-.374-.946-.83-.88-1.311.067-.481.49-.971 1.278-1.419a8.59 8.59 0 01.871-.431c.315-.15.672-.274 1.046-.415l-.556-.324a3.26 3.26 0 00-1.585-.497 3.42 3.42 0 00-1.593.514 3.968 3.968 0 00-.73.539 5.633 5.633 0 00-.564.622 1.588 1.588 0 01-.166.216.722.722 0 01-.1.083.375.375 0 01-.398-.05l-.373-.215a.444.444 0 01-.216-.183.274.274 0 01.058-.216c.166-.28.373-.535.614-.755.314-.3.666-.56 1.045-.771a5.397 5.397 0 012.622-.83c.88.012 1.74.261 2.489.722l2.489 1.427-.008.025zm-1.942 2.489a2.37 2.37 0 00.647-.531.918.918 0 00.241-.705.749.749 0 00-.232-.432 2.724 2.724 0 00-.589-.423l-.316-.182a11.51 11.51 0 00-.829.323c-.274.116-.523.257-.763.39-.507.299-.78.573-.83.83-.05.257.124.498.506.722a1.993 1.993 0 002.165-.042v.05zm6.961-3.062a.832.832 0 01-.373.125 1.442 1.442 0 01-.456-.083l-7.7-2.373a2.33 2.33 0 01-.373-.133c-.116-.074-.124-.149 0-.215l.755-.432a.792.792 0 01.373-.133c.153.007.303.035.448.083l6.339 2.182-3.866-3.609c-.116-.107-.166-.19-.15-.257a.455.455 0 01.224-.215l.614-.357a.914.914 0 01.382-.133c.154.001.306.032.448.091l6.322 2.257-3.8-3.717c-.108-.116-.149-.199-.141-.257.008-.058.083-.141.216-.216l.713-.415a.378.378 0 01.382 0l.108.083c.048.044.092.091.133.141l4.065 4.472c.108.116.149.199.141.266a.42.42 0 01-.216.207l-.655.382a.969.969 0 01-.382.133 1.398 1.398 0 01-.456-.092l-6.115-2.19 3.742 3.518c.116.116.166.199.158.265-.009.067-.092.141-.224.216l-.656.406zm10.014-5.55a7.634 7.634 0 01-1.311.606 7.273 7.273 0 01-1.186.332c-.149.024-.3.024-.448 0a.733.733 0 01-.257-.1l-.39-.224c-.166-.091-.175-.166-.067-.232a.79.79 0 01.166-.067l.266-.066a8.33 8.33 0 001.103-.332 7.414 7.414 0 001.004-.473c.353-.168.644-.444.83-.788.091-.249 0-.465-.332-.647a1.505 1.505 0 00-.739-.191 3.985 3.985 0 00-1.169.216l-1.452.439a5.36 5.36 0 01-2 .258 3.534 3.534 0 01-1.485-.423 1.491 1.491 0 01-.647-.606 1.018 1.018 0 01-.075-.68c.071-.261.209-.498.399-.689.248-.245.527-.457.829-.631.175-.091.357-.19.548-.273.191-.083.39-.166.581-.241l.555-.182c.15-.044.303-.077.457-.1.14-.019.283-.019.423 0a.67.67 0 01.315.108l.365.207c.158.091.183.174.067.241a1.652 1.652 0 01-.382.116 5.993 5.993 0 00-1.767.672 1.807 1.807 0 00-.83.713c-.091.216 0 .415.315.598.237.128.503.191.772.182a5.254 5.254 0 001.261-.24l1.427-.432a5.235 5.235 0 011.917-.257c.498.026.984.168 1.418.415.283.14.521.355.689.622a.99.99 0 01.116.714 1.463 1.463 0 01-.423.73 3.578 3.578 0 01-.863.655v.05z" fill="#252F3E"/><path d="M308.655 215.787c-.655 2.489-3.319 5.202-6.455 7.011a33.833 33.833 0 01-15.722 4.057c-.448 0-.522-.274-.074-.34a42.31 42.31 0 0014.378-4.821 21.808 21.808 0 006.894-6.031c.266-.349 1.087-.291.979.124zm-.141-1.286c-.73-.058-2.323 1.112-3.036 1.659-.216.158-.473.058-.407-.157.423-1.411 3.078-2.605 3.684-2.572.605.033 2.63 1.601 2.414 3.028a.244.244 0 01-.064.135.25.25 0 01-.278.061.249.249 0 01-.114-.096c-.448-.639-1.477-2.016-2.199-2.058z" fill="#F90"/><path opacity=".1" d="M403.182 190.931l24.566-.15 74.162-42.038a1.171 1.171 0 00.438-1.612 1.164 1.164 0 00-.438-.429l-24.06-14.104.083 15-74.751 43.333z" fill="#000"/><path d="M401.88 87.98l-81.074 46.8a1.311 1.311 0 000 2.256l81.074 46.81a2.611 2.611 0 002.605 0l81.09-46.81a1.31 1.31 0 000-2.256l-81.073-46.8a2.607 2.607 0 00-2.622 0z" fill="url(#prefix__paint3_linear)"/><path d="M486.205 135.908a1.29 1.29 0 01-.647 1.128l-81.074 46.809a2.62 2.62 0 01-1.302.349v6.936a2.62 2.62 0 001.302-.349l81.09-46.801a1.309 1.309 0 00.648-1.128v-6.944h-.017z" fill="url(#prefix__paint4_linear)"/><path d="M401.879 183.845l-81.074-46.809a1.29 1.29 0 01-.647-1.128v6.944a1.302 1.302 0 00.647 1.128l81.074 46.801a2.62 2.62 0 001.302.349v-6.936a2.62 2.62 0 01-1.302-.349z" fill="url(#prefix__paint5_linear)"/><path d="M411.328 160.831l4.978-2.887c2.888-1.66 3.576-4.149 1.66-6.264-1.917-2.116-5.899-3.178-9.882-2.738a20.74 20.74 0 00-7.101-.962v3.244c2.013-.16 4.03.267 5.807 1.227l.498.291c3.319-1.925 8.297.962 4.978 2.887l-4.978 2.895 4.04 2.307z" fill="#4285F4"/><path d="M401.132 151.207l-.041-3.228c-4.389.158-8.297 1.66-10.413 3.85-2.115 2.19-2.024 4.978.183 7.152a5.25 5.25 0 012.489-2.796c.458-.249.936-.463 1.427-.639-.224-2.182 2.539-4.09 6.289-4.314l.066-.025z" fill="#EA4335"/><path d="M406.335 163.718l4.978-2.887-4.007-2.307-4.978 2.879a4.323 4.323 0 01-1.253.465v3.319a12.557 12.557 0 005.235-1.51l.025.041z" fill="#34A853"/><path d="M393.351 156.218c-2.763 1.618-3.443 4.065-1.659 6.098 1.783 2.033 5.533 3.194 9.433 2.904v-3.319c-2.315.506-4.787-.481-4.787-1.908s2.489-2.414 4.787-1.908v-3.319a13.891 13.891 0 00-7.733 1.518l-.041-.066z" fill="#FBBC05"/><path opacity=".1" d="M403.269 316.98l24.566-.166 182.167-104.843a1.183 1.183 0 00.59-1.021 1.181 1.181 0 00-.59-1.02l-24.059-14.104.091 15.008L403.269 316.98z" fill="#000"/><path d="M509.746 151.19L320.9 260.223a1.304 1.304 0 00-.653 1.125 1.301 1.301 0 00.653 1.124l81.066 46.809a2.61 2.61 0 002.605 0l188.846-109.025a1.307 1.307 0 00.651-1.128 1.307 1.307 0 00-.651-1.129l-81.066-46.809a2.61 2.61 0 00-2.605 0z" fill="url(#prefix__paint6_linear)"/><path d="M594.073 199.128a1.288 1.288 0 01-.655 1.128L404.572 309.281a2.61 2.61 0 01-1.303.348v6.944c.458 0 .907-.12 1.303-.348L593.418 207.2a1.302 1.302 0 00.655-1.128v-6.944z" fill="url(#prefix__paint7_linear)"/><path d="M401.967 309.281l-81.066-46.809a1.277 1.277 0 01-.655-1.12v6.936a1.299 1.299 0 00.655 1.128l81.066 46.809a2.62 2.62 0 001.302.349v-6.945a2.61 2.61 0 01-1.302-.348z" fill="url(#prefix__paint8_linear)"/><path d="M412.104 287.171l-8.039-4.647 8.039-4.637 8.048 4.637-8.048 4.647z" fill="#FFBA08"/><path d="M402.862 292.505l-8.048-4.638 8.048-4.646 8.039 4.646-8.039 4.638z" fill="#05A6F0"/><path d="M402.853 281.828l-8.039-4.638 8.039-4.646 8.048 4.646-8.048 4.638z" fill="#81BC06"/><path d="M393.612 287.171l-8.039-4.647 8.039-4.646 8.04 4.646-8.04 4.647z" fill="#F35325"/><path opacity=".1" d="M295.37 129.055l24.566-.166 74.163-42.038a1.168 1.168 0 000-2.033l-24.06-14.104.092 15-74.761 43.341z" fill="#000"/><path d="M294.142 25.755l-81.074 46.8a1.311 1.311 0 000 2.257l81.074 46.81a2.61 2.61 0 002.605 0l81.065-46.81a1.302 1.302 0 000-2.256l-81.065-46.801a2.605 2.605 0 00-2.605 0z" fill="url(#prefix__paint9_linear)"/><path d="M378.477 73.684a1.283 1.283 0 01-.656 1.128l-81.065 46.809a2.627 2.627 0 01-1.303.349v6.936a2.627 2.627 0 001.303-.349l81.065-46.8a1.3 1.3 0 00.656-1.129v-6.944z" fill="url(#prefix__paint10_linear)"/><path d="M294.142 121.621l-81.074-46.809a1.282 1.282 0 01-.647-1.128v6.944a1.32 1.32 0 00.647 1.128l81.074 46.801c.396.229.845.349 1.303.349v-6.936c-.458 0-.907-.12-1.303-.349z" fill="url(#prefix__paint11_linear)"/><path d="M292.732 101.511a2.998 2.998 0 01-1.485-.374l-2.63-1.518a1.388 1.388 0 01-.83-1.162 1.165 1.165 0 01.639-1.003l11.897-6.87a2.936 2.936 0 012.688.091l2.63 1.519a1.396 1.396 0 01.83 1.161 1.165 1.165 0 01-.639 1.004l-11.897 6.87c-.37.196-.785.294-1.203.282zm8.827-10.147a1.418 1.418 0 00-.672.141l-11.897 6.87a.328.328 0 00-.108.09c.066.1.158.181.265.233l2.63 1.518a1.893 1.893 0 001.66.092l11.897-6.87a.328.328 0 00.108-.091.665.665 0 00-.266-.232l-2.63-1.519a1.98 1.98 0 00-.987-.232z" fill="#000"/><path d="M291.827 98.972c.482 0 .872-.227.872-.506 0-.28-.39-.506-.872-.506-.481 0-.871.226-.871.506s.39.506.871.506zM301.394 93.297l-2.887 1.66a.989.989 0 01-.83 0c-.249-.15-.282-.374-.058-.498l2.887-1.66a.937.937 0 01.83 0c.249.15.282.373.058.498zM294.972 103.211a.555.555 0 01-.465-.265.535.535 0 01.2-.73l6.512-3.767-1.501-.83a.536.536 0 01.126-.977.528.528 0 01.405.057l2.306 1.327a.538.538 0 01.266.456.555.555 0 01-.266.465l-7.317 4.223a.517.517 0 01-.266.041z" fill="#000"/><path d="M302.281 98.989a.54.54 0 01-.266-.996l7.318-4.223a.527.527 0 01.592.035.527.527 0 01.188.562.54.54 0 01-.249.324l-7.309 4.223a.568.568 0 01-.274.075zM285.663 97.429a3.045 3.045 0 01-1.493-.374l-2.622-1.518a1.394 1.394 0 01-.829-1.161 1.155 1.155 0 01.638-1.004l11.898-6.87a2.935 2.935 0 012.688.092l2.63 1.518a1.392 1.392 0 01.829 1.17 1.163 1.163 0 01-.638.996l-11.898 6.869c-.371.193-.784.29-1.203.282zm8.828-10.147a1.42 1.42 0 00-.672.141l-11.897 6.87a.31.31 0 00-.108.091c.066.1.157.18.265.232l2.63 1.519a1.896 1.896 0 001.66.09l11.888-6.869c.092-.05.108-.09.108-.09s-.049-.117-.257-.233l-2.63-1.519a1.982 1.982 0 00-.987-.232z" fill="#000"/><path d="M284.759 94.89c.481 0 .871-.227.871-.506 0-.28-.39-.506-.871-.506s-.871.227-.871.506c0 .28.39.506.871.506zM294.325 89.215l-2.887 1.66a.989.989 0 01-.83 0c-.257-.15-.282-.374-.058-.498l2.887-1.66a.937.937 0 01.83 0c.249.15.282.374.058.498z" fill="#000"/><path opacity=".5" d="M147.573 266.893L27.829 336.02a1.706 1.706 0 00-.622 2.328c.15.26.363.475.622.626l119.744 69.135a8.558 8.558 0 008.553 0l119.736-69.094a1.71 1.71 0 000-2.954l-119.736-69.168a8.557 8.557 0 00-8.553 0z" fill="#E5D4FF"/><path d="M149.605 213.447L9.128 294.562a1.31 1.31 0 000 2.257l140.734 81.356a2.598 2.598 0 002.597 0l140.461-81.124a1.307 1.307 0 00.651-1.128 1.307 1.307 0 00-.651-1.128l-140.726-81.348a2.6 2.6 0 00-2.589 0z" fill="url(#prefix__paint12_linear)"/><path opacity=".95" fill-rule="evenodd" clip-rule="evenodd" d="M152.924 287.891l-17.672 2.73 12.827 7.409 17.613-2.73-12.768-7.409zm19.406-3.774l-12.984-7.467-4.721 10.171 12.984 7.467 4.721-10.171zm-57.645 9.657l12.827 7.4 17.613-2.721-12.768-7.417-17.672 2.738zm53.256 2.787l-17.672 2.738 12.827 7.401 17.621-2.722-12.776-7.417z" fill="#fff"/><defs><linearGradient id="prefix__paint0_linear" x1="42596" y1="38860.2" x2="132628" y2="38860.2" gradientUnits="userSpaceOnUse"><stop stop-color="#FAFAFA"/><stop offset=".68" stop-color="#FAFAFA"/><stop offset="1" stop-color="#EFEFF0"/></linearGradient><linearGradient id="prefix__paint1_linear" x1="29688.2" y1="32704.8" x2="73329.2" y2="32704.8" gradientUnits="userSpaceOnUse"><stop offset=".01" stop-color="#EFEFF0"/><stop offset=".48" stop-color="#E7E7E8"/><stop offset="1" stop-color="#D8D8D9"/></linearGradient><linearGradient id="prefix__paint2_linear" x1="32244.6" y1="17600.7" x2="40552.7" y2="17600.7" gradientUnits="userSpaceOnUse"><stop stop-color="#C0C0C2"/><stop offset="1" stop-color="#DBDBDC"/></linearGradient><linearGradient id="prefix__paint3_linear" x1="69170.5" y1="20064" x2="102405" y2="20064" gradientUnits="userSpaceOnUse"><stop stop-color="#FAFAFA"/><stop offset=".68" stop-color="#FAFAFA"/><stop offset="1" stop-color="#EFEFF0"/></linearGradient><linearGradient id="prefix__paint4_linear" x1="43143.1" y1="13396.9" x2="51452.9" y2="13396.9" gradientUnits="userSpaceOnUse"><stop stop-color="#C0C0C2"/><stop offset="1" stop-color="#DBDBDC"/></linearGradient><linearGradient id="prefix__paint5_linear" x1="34743.4" y1="13396.9" x2="43051.5" y2="13396.9" gradientUnits="userSpaceOnUse"><stop offset=".01" stop-color="#EFEFF0"/><stop offset=".48" stop-color="#E7E7E8"/><stop offset="1" stop-color="#D8D8D9"/></linearGradient><linearGradient id="prefix__paint6_linear" x1="320.245" y1="230.24" x2="594.072" y2="230.24" gradientUnits="userSpaceOnUse"><stop stop-color="#FAFAFA"/><stop offset=".68" stop-color="#FAFAFA"/><stop offset="1" stop-color="#EFEFF0"/></linearGradient><linearGradient id="prefix__paint7_linear" x1="403.269" y1="257.851" x2="594.073" y2="257.851" gradientUnits="userSpaceOnUse"><stop stop-color="#C0C0C2"/><stop offset="1" stop-color="#DBDBDC"/></linearGradient><linearGradient id="prefix__paint8_linear" x1="320.246" y1="288.963" x2="403.269" y2="288.963" gradientUnits="userSpaceOnUse"><stop offset=".01" stop-color="#EFEFF0"/><stop offset=".48" stop-color="#E7E7E8"/><stop offset="1" stop-color="#D8D8D9"/></linearGradient><linearGradient id="prefix__paint9_linear" x1="47508.8" y1="12758.4" x2="80740" y2="12758.4" gradientUnits="userSpaceOnUse"><stop stop-color="#FAFAFA"/><stop offset=".68" stop-color="#FAFAFA"/><stop offset="1" stop-color="#EFEFF0"/></linearGradient><linearGradient id="prefix__paint10_linear" x1="32252.9" y1="9193" x2="40561" y2="9193" gradientUnits="userSpaceOnUse"><stop stop-color="#C0C0C2"/><stop offset="1" stop-color="#DBDBDC"/></linearGradient><linearGradient id="prefix__paint11_linear" x1="23861.7" y1="9193" x2="32169.8" y2="9193" gradientUnits="userSpaceOnUse"><stop offset=".01" stop-color="#EFEFF0"/><stop offset=".48" stop-color="#E7E7E8"/><stop offset="1" stop-color="#D8D8D9"/></linearGradient><linearGradient id="prefix__paint12_linear" x1="8.481" y1="295.807" x2="293.575" y2="295.807" gradientUnits="userSpaceOnUse"><stop stop-color="#A554F3"/><stop offset=".05" stop-color="#A052EE"/><stop offset=".47" stop-color="#7840CB"/><stop offset=".8" stop-color="#6035B6"/><stop offset="1" stop-color="#5731AE"/></linearGradient></defs></svg>